# xmcd CD database file
#
# Track frame offsets:
#	150
#	24685
#	60697
#	105730
#	135262
#	156762
#	189405
#	204540
#	219222
#	240890
#	253240
#
# Disc length: 3626 seconds
#
# Revision: 0
# Processed by: cddbd v1.5PL3 Copyright (c) Steve Scherf et al.
# Submitted via: CDex 1.50
#
DISCID=8f0e280b
DTITLE=anymous - JAZZ on TVCF
DYEAR=1900
DGENRE=Jazz
TTITLE0=Fly, Jack
TTITLE1=Work song
TTITLE2=Take Five
TTITLE3=Five Spot After Dark
TTITLE4=Moanin'
TTITLE5=Recado Bossa Nova
TTITLE6=In The Mood
TTITLE7=You'd Be So Nice To Come Home To
TTITLE8=Feelings
TTITLE9=Night And Day
TTITLE10=いつのまにか少女は
EXTD=
EXTT0=
EXTT1=
EXTT2=
EXTT3=
EXTT4=
EXTT5=
EXTT6=
EXTT7=
EXTT8=
EXTT9=
EXTT10=
PLAYORDER=
